<svg width="159" height="70" viewBox="0 0 159 70" fill="none" xmlns="http://www.w3.org/2000/svg">
<g clip-path="url(#clip0_1283_779)">
<path d="M57.2362 52.8823L26.9999 52.8823L26.9999 30.1182C26.9999 21.7686 33.7685 15 42.118 15C50.4676 15 57.2362 21.7687 57.2362 30.1182L57.2362 52.8823Z" fill="#F1E8DF"/>
<circle cx="59.3379" cy="55.1085" r="9.905" transform="rotate(-180 59.3379 55.1085)" stroke="#292725" stroke-width="1.73772"/>
<circle cx="59.3154" cy="53.5318" r="16.6821" transform="rotate(-180 59.3154 53.5318)" stroke="#292725" stroke-width="1.73772"/>
<circle cx="60.9921" cy="52.8775" r="24.9358" transform="rotate(-180 60.9921 52.8775)" stroke="#292725" stroke-width="1.79394"/>
<circle cx="62.5109" cy="54.3965" r="34.0593" transform="rotate(-180 62.5109 54.3965)" stroke="#292725" stroke-width="1.73772"/>
<circle cx="59.8415" cy="52.8919" r="37.5673" transform="rotate(177.465 59.8415 52.8919)" stroke="#292725" stroke-width="1.6044"/>
</g>
<path d="M67.5762 26.3884H65.5315L68.6471 17.3633H71.1061L74.2173 26.3884H72.1725L69.9118 19.4257H69.8413L67.5762 26.3884ZM67.4484 22.8409H72.2783V24.3304H67.4484V22.8409ZM80.3583 19.6196L77.9918 26.3884H75.8765L73.5101 19.6196H75.4931L76.8989 24.4627H76.9694L78.3708 19.6196H80.3583ZM82.6951 26.5162C82.2632 26.5162 81.8783 26.4413 81.5405 26.2915C81.2026 26.1387 80.9353 25.914 80.7384 25.6172C80.5445 25.3176 80.4476 24.9445 80.4476 24.4979C80.4476 24.1219 80.5166 23.806 80.6547 23.5504C80.7928 23.2948 80.9808 23.0892 81.2188 22.9335C81.4567 22.7778 81.727 22.6603 82.0296 22.5809C82.3352 22.5016 82.6554 22.4458 82.9903 22.4135C83.384 22.3724 83.7013 22.3342 83.9422 22.2989C84.1831 22.2607 84.3579 22.2049 84.4666 22.1315C84.5753 22.058 84.6296 21.9493 84.6296 21.8053V21.7789C84.6296 21.4998 84.5415 21.2839 84.3652 21.1311C84.1919 20.9783 83.9451 20.902 83.6249 20.902C83.287 20.902 83.0182 20.9769 82.8184 21.1267C82.6187 21.2736 82.4865 21.4587 82.4218 21.682L80.6856 21.5409C80.7737 21.1296 80.947 20.7742 81.2056 20.4745C81.4641 20.1719 81.7975 19.9398 82.2059 19.7782C82.6172 19.6137 83.0931 19.5314 83.6337 19.5314C84.0098 19.5314 84.3696 19.5755 84.7134 19.6636C85.06 19.7518 85.3671 19.8884 85.6344 20.0735C85.9047 20.2586 86.1177 20.4965 86.2734 20.7874C86.4291 21.0753 86.5069 21.4205 86.5069 21.823V26.3884H84.7266V25.4498H84.6737C84.565 25.6613 84.4196 25.8479 84.2374 26.0094C84.0553 26.1681 83.8364 26.2929 83.5808 26.384C83.3252 26.4722 83.03 26.5162 82.6951 26.5162ZM83.2327 25.2206C83.5088 25.2206 83.7527 25.1663 83.9642 25.0576C84.1757 24.9459 84.3417 24.7961 84.4622 24.6081C84.5826 24.4201 84.6429 24.2071 84.6429 23.9691V23.2508C84.5841 23.289 84.5033 23.3242 84.4005 23.3565C84.3006 23.3859 84.1875 23.4138 84.0612 23.4403C83.9348 23.4638 83.8085 23.4858 83.6822 23.5064C83.5559 23.524 83.4413 23.5402 83.3385 23.5548C83.1181 23.5872 82.9257 23.6386 82.7612 23.7091C82.5966 23.7796 82.4688 23.8751 82.3778 23.9955C82.2867 24.113 82.2412 24.2599 82.2412 24.4362C82.2412 24.6918 82.3337 24.8872 82.5188 25.0223C82.7068 25.1545 82.9448 25.2206 83.2327 25.2206ZM87.6264 26.3884V17.3633H89.5037V20.7565H89.561C89.6432 20.5744 89.7622 20.3893 89.9179 20.2013C90.0766 20.0103 90.2822 19.8517 90.5349 19.7253C90.7905 19.5961 91.1077 19.5314 91.4867 19.5314C91.9803 19.5314 92.4357 19.6607 92.8528 19.9192C93.27 20.1748 93.6035 20.5612 93.8532 21.0782C94.1029 21.5924 94.2278 22.2372 94.2278 23.0128C94.2278 23.7678 94.1058 24.4054 93.862 24.9254C93.6211 25.4424 93.2921 25.8346 92.8749 26.102C92.4606 26.3664 91.9965 26.4986 91.4823 26.4986C91.118 26.4986 90.8081 26.4384 90.5525 26.3179C90.2998 26.1975 90.0927 26.0462 89.9311 25.864C89.7695 25.6789 89.6462 25.4924 89.561 25.3044H89.4772V26.3884H87.6264ZM89.464 23.004C89.464 23.4065 89.5198 23.7576 89.6315 24.0572C89.7431 24.3569 89.9047 24.5904 90.1162 24.7579C90.3277 24.9224 90.5848 25.0047 90.8874 25.0047C91.1929 25.0047 91.4515 24.921 91.663 24.7535C91.8745 24.5831 92.0346 24.3481 92.1433 24.0484C92.255 23.7458 92.3108 23.3977 92.3108 23.004C92.3108 22.6133 92.2565 22.2695 92.1478 21.9728C92.039 21.6761 91.8789 21.444 91.6674 21.2765C91.4559 21.1091 91.1959 21.0253 90.8874 21.0253C90.5819 21.0253 90.3233 21.1061 90.1118 21.2677C89.9032 21.4293 89.7431 21.6585 89.6315 21.9552C89.5198 22.2519 89.464 22.6015 89.464 23.004ZM98.1664 26.5206C97.4819 26.5206 96.8899 26.3752 96.3905 26.0844C95.894 25.7906 95.5106 25.3822 95.2403 24.8593C94.97 24.3334 94.8349 23.7238 94.8349 23.0304C94.8349 22.3312 94.97 21.7201 95.2403 21.1972C95.5106 20.6713 95.894 20.263 96.3905 19.9721C96.8899 19.6783 97.4819 19.5314 98.1664 19.5314C98.851 19.5314 99.4415 19.6783 99.938 19.9721C100.437 20.263 100.822 20.6713 101.093 21.1972C101.363 21.7201 101.498 22.3312 101.498 23.0304C101.498 23.7238 101.363 24.3334 101.093 24.8593C100.822 25.3822 100.437 25.7906 99.938 26.0844C99.4415 26.3752 98.851 26.5206 98.1664 26.5206ZM98.1753 25.0664C98.4867 25.0664 98.7467 24.9782 98.9553 24.802C99.1638 24.6228 99.321 24.3789 99.4268 24.0704C99.5355 23.762 99.5898 23.4109 99.5898 23.0172C99.5898 22.6235 99.5355 22.2725 99.4268 21.964C99.321 21.6555 99.1638 21.4117 98.9553 21.2325C98.7467 21.0533 98.4867 20.9636 98.1753 20.9636C97.8609 20.9636 97.5965 21.0533 97.382 21.2325C97.1705 21.4117 97.0104 21.6555 96.9017 21.964C96.7959 22.2725 96.743 22.6235 96.743 23.0172C96.743 23.4109 96.7959 23.762 96.9017 24.0704C97.0104 24.3789 97.1705 24.6228 97.382 24.802C97.5965 24.9782 97.8609 25.0664 98.1753 25.0664ZM104.841 26.4986C104.327 26.4986 103.861 26.3664 103.444 26.102C103.029 25.8346 102.7 25.4424 102.457 24.9254C102.216 24.4054 102.095 23.7678 102.095 23.0128C102.095 22.2372 102.22 21.5924 102.47 21.0782C102.719 20.5612 103.051 20.1748 103.466 19.9192C103.883 19.6607 104.34 19.5314 104.836 19.5314C105.215 19.5314 105.531 19.5961 105.784 19.7253C106.039 19.8517 106.245 20.0103 106.401 20.2013C106.559 20.3893 106.68 20.5744 106.762 20.7565H106.819V17.3633H108.692V26.3884H106.841V25.3044H106.762C106.674 25.4924 106.549 25.6789 106.387 25.864C106.229 26.0462 106.022 26.1975 105.766 26.3179C105.513 26.4384 105.205 26.4986 104.841 26.4986ZM105.436 25.0047C105.738 25.0047 105.994 24.9224 106.202 24.7579C106.414 24.5904 106.575 24.3569 106.687 24.0572C106.802 23.7576 106.859 23.4065 106.859 23.004C106.859 22.6015 106.803 22.2519 106.691 21.9552C106.58 21.6585 106.418 21.4293 106.207 21.2677C105.995 21.1061 105.738 21.0253 105.436 21.0253C105.127 21.0253 104.867 21.1091 104.656 21.2765C104.444 21.444 104.284 21.6761 104.175 21.9728C104.067 22.2695 104.012 22.6133 104.012 23.004C104.012 23.3977 104.067 23.7458 104.175 24.0484C104.287 24.3481 104.447 24.5831 104.656 24.7535C104.867 24.921 105.127 25.0047 105.436 25.0047ZM111.741 22.4752V26.3884H109.863V17.3633H111.688V20.8138H111.767C111.92 20.4143 112.167 20.1014 112.507 19.8752C112.848 19.646 113.276 19.5314 113.79 19.5314C114.26 19.5314 114.67 19.6343 115.019 19.8399C115.372 20.0426 115.645 20.3349 115.839 20.7169C116.036 21.0959 116.133 21.5498 116.13 22.0786V26.3884H114.253V22.4135C114.256 21.9963 114.15 21.6717 113.935 21.4396C113.724 21.2075 113.427 21.0914 113.045 21.0914C112.79 21.0914 112.563 21.1458 112.366 21.2545C112.173 21.3632 112.02 21.5218 111.908 21.7304C111.799 21.9361 111.744 22.1843 111.741 22.4752ZM119.165 26.5162C118.733 26.5162 118.348 26.4413 118.011 26.2915C117.673 26.1387 117.405 25.914 117.209 25.6172C117.015 25.3176 116.918 24.9445 116.918 24.4979C116.918 24.1219 116.987 23.806 117.125 23.5504C117.263 23.2948 117.451 23.0892 117.689 22.9335C117.927 22.7778 118.197 22.6603 118.5 22.5809C118.805 22.5016 119.125 22.4458 119.46 22.4135C119.854 22.3724 120.171 22.3342 120.412 22.2989C120.653 22.2607 120.828 22.2049 120.937 22.1315C121.045 22.058 121.1 21.9493 121.1 21.8053V21.7789C121.1 21.4998 121.012 21.2839 120.835 21.1311C120.662 20.9783 120.415 20.902 120.095 20.902C119.757 20.902 119.488 20.9769 119.289 21.1267C119.089 21.2736 118.957 21.4587 118.892 21.682L117.156 21.5409C117.244 21.1296 117.417 20.7742 117.676 20.4745C117.934 20.1719 118.268 19.9398 118.676 19.7782C119.087 19.6137 119.563 19.5314 120.104 19.5314C120.48 19.5314 120.84 19.5755 121.183 19.6636C121.53 19.7518 121.837 19.8884 122.104 20.0735C122.375 20.2586 122.588 20.4965 122.743 20.7874C122.899 21.0753 122.977 21.4205 122.977 21.823V26.3884H121.197V25.4498H121.144C121.035 25.6613 120.89 25.8479 120.708 26.0094C120.525 26.1681 120.307 26.2929 120.051 26.384C119.795 26.4722 119.5 26.5162 119.165 26.5162ZM119.703 25.2206C119.979 25.2206 120.223 25.1663 120.434 25.0576C120.646 24.9459 120.812 24.7961 120.932 24.6081C121.053 24.4201 121.113 24.2071 121.113 23.9691V23.2508C121.054 23.289 120.973 23.3242 120.871 23.3565C120.771 23.3859 120.658 23.4138 120.531 23.4403C120.405 23.4638 120.279 23.4858 120.152 23.5064C120.026 23.524 119.911 23.5402 119.809 23.5548C119.588 23.5872 119.396 23.6386 119.231 23.7091C119.067 23.7796 118.939 23.8751 118.848 23.9955C118.757 24.113 118.711 24.2599 118.711 24.4362C118.711 24.6918 118.804 24.8872 118.989 25.0223C119.177 25.1545 119.415 25.2206 119.703 25.2206ZM124.061 26.3884V19.6196H125.85V20.8138H125.93C126.071 20.4172 126.306 20.1043 126.635 19.8752C126.964 19.646 127.357 19.5314 127.816 19.5314C128.28 19.5314 128.675 19.6475 129.001 19.8796C129.327 20.1087 129.545 20.4201 129.653 20.8138H129.724C129.862 20.426 130.112 20.1161 130.473 19.884C130.837 19.6489 131.268 19.5314 131.764 19.5314C132.396 19.5314 132.909 19.7327 133.302 20.1352C133.699 20.5347 133.897 21.1017 133.897 21.8362V26.3884H132.024V22.2064C132.024 21.8303 131.924 21.5483 131.725 21.3603C131.525 21.1722 131.275 21.0782 130.975 21.0782C130.635 21.0782 130.369 21.1869 130.178 21.4043C129.987 21.6188 129.891 21.9023 129.891 22.2548V26.3884H128.071V22.1667C128.071 21.8347 127.976 21.5703 127.785 21.3735C127.597 21.1766 127.349 21.0782 127.04 21.0782C126.832 21.0782 126.644 21.1311 126.476 21.2369C126.312 21.3397 126.181 21.4851 126.084 21.6731C125.987 21.8582 125.939 22.0756 125.939 22.3253V26.3884H124.061ZM67.9288 30.3633V39.3884H66.0206V30.3633H67.9288ZM70.9685 35.4752V39.3884H69.0912V32.6196H70.8803V33.8138H70.9596C71.1095 33.4201 71.3607 33.1087 71.7132 32.8796C72.0657 32.6475 72.4932 32.5314 72.9956 32.5314C73.4656 32.5314 73.8755 32.6343 74.2251 32.8399C74.5747 33.0456 74.8464 33.3393 75.0403 33.7213C75.2342 34.1003 75.3312 34.5527 75.3312 35.0786V39.3884H73.4539V35.4135C73.4568 34.9992 73.3511 34.6761 73.1366 34.444C72.9221 34.209 72.6269 34.0914 72.2508 34.0914C71.9982 34.0914 71.7749 34.1458 71.581 34.2545C71.39 34.3632 71.2402 34.5218 71.1315 34.7304C71.0257 34.9361 70.9714 35.1843 70.9685 35.4752ZM82.0704 34.5498L80.3517 34.6555C80.3224 34.5086 80.2592 34.3764 80.1622 34.2589C80.0653 34.1384 79.9375 34.043 79.7789 33.9725C79.6231 33.899 79.4366 33.8623 79.2192 33.8623C78.9283 33.8623 78.683 33.924 78.4832 34.0474C78.2835 34.1678 78.1836 34.3294 78.1836 34.5321C78.1836 34.6937 78.2482 34.8303 78.3775 34.942C78.5068 35.0536 78.7286 35.1432 79.0429 35.2108L80.268 35.4576C80.9261 35.5927 81.4167 35.8101 81.7399 36.1098C82.063 36.4094 82.2246 36.8031 82.2246 37.2908C82.2246 37.7344 82.0939 38.1237 81.8324 38.4586C81.5739 38.7935 81.2184 39.055 80.766 39.243C80.3165 39.4281 79.7979 39.5206 79.2104 39.5206C78.3143 39.5206 77.6004 39.3341 77.0687 38.961C76.5398 38.5849 76.2299 38.0737 76.1388 37.4274L77.9853 37.3304C78.0411 37.6037 78.1762 37.8123 78.3907 37.9562C78.6052 38.0972 78.8799 38.1677 79.2148 38.1677C79.5438 38.1677 79.8082 38.1046 80.008 37.9782C80.2107 37.849 80.3135 37.683 80.3165 37.4803C80.3135 37.3099 80.2416 37.1703 80.1005 37.0616C79.9595 36.95 79.7421 36.8648 79.4483 36.806L78.2761 36.5725C77.6151 36.4403 77.123 36.2111 76.7998 35.885C76.4796 35.5589 76.3195 35.1432 76.3195 34.6379C76.3195 34.2031 76.437 33.8285 76.6721 33.5142C76.91 33.1998 77.2435 32.9574 77.6724 32.787C78.1043 32.6166 78.6096 32.5314 79.1883 32.5314C80.0433 32.5314 80.716 32.7121 81.2067 33.0735C81.7002 33.4348 81.9881 33.9269 82.0704 34.5498ZM86.6348 32.6196V34.0297H82.5585V32.6196H86.6348ZM83.484 30.9979H85.3613V37.3084C85.3613 37.4817 85.3877 37.6169 85.4406 37.7138C85.4935 37.8079 85.5669 37.874 85.6609 37.9121C85.7579 37.9503 85.8695 37.9694 85.9958 37.9694C86.084 37.9694 86.1721 37.9621 86.2603 37.9474C86.3484 37.9298 86.416 37.9166 86.463 37.9077L86.7582 39.3047C86.6642 39.3341 86.532 39.3679 86.3616 39.4061C86.1912 39.4472 85.9841 39.4722 85.7403 39.481C85.2878 39.4986 84.8912 39.4384 84.5504 39.3003C84.2126 39.1622 83.9496 38.9477 83.7616 38.6569C83.5736 38.366 83.481 37.9988 83.484 37.5552V30.9979ZM87.4854 39.3884V32.6196H89.3627V39.3884H87.4854ZM88.4285 31.747C88.1494 31.747 87.91 31.6545 87.7102 31.4694C87.5133 31.2814 87.4149 31.0566 87.4149 30.7952C87.4149 30.5366 87.5133 30.3148 87.7102 30.1297C87.91 29.9417 88.1494 29.8477 88.4285 29.8477C88.7076 29.8477 88.9456 29.9417 89.1424 30.1297C89.3422 30.3148 89.4421 30.5366 89.4421 30.7952C89.4421 31.0566 89.3422 31.2814 89.1424 31.4694C88.9456 31.6545 88.7076 31.747 88.4285 31.747ZM94.0946 32.6196V34.0297H90.0183V32.6196H94.0946ZM90.9438 30.9979H92.8211V37.3084C92.8211 37.4817 92.8475 37.6169 92.9004 37.7138C92.9533 37.8079 93.0267 37.874 93.1207 37.9121C93.2177 37.9503 93.3293 37.9694 93.4556 37.9694C93.5438 37.9694 93.6319 37.9621 93.7201 37.9474C93.8082 37.9298 93.8758 37.9166 93.9228 37.9077L94.218 39.3047C94.124 39.3341 93.9918 39.3679 93.8214 39.4061C93.651 39.4472 93.4439 39.4722 93.2001 39.481C92.7476 39.4986 92.351 39.4384 92.0102 39.3003C91.6724 39.1622 91.4094 38.9477 91.2214 38.6569C91.0334 38.366 90.9408 37.9988 90.9438 37.5552V30.9979ZM99.2859 36.5064V32.6196H101.163V39.3884H99.3609V38.1589H99.2904C99.1376 38.5555 98.8835 38.8743 98.528 39.1152C98.1754 39.3561 97.745 39.4766 97.2368 39.4766C96.7843 39.4766 96.3863 39.3737 96.0425 39.1681C95.6988 38.9624 95.43 38.6701 95.2361 38.2911C95.0451 37.9121 94.9482 37.4582 94.9452 36.9294V32.6196H96.8225V36.5945C96.8255 36.9941 96.9327 37.3099 97.1442 37.542C97.3558 37.7741 97.6393 37.8901 97.9947 37.8901C98.221 37.8901 98.4325 37.8387 98.6293 37.7359C98.8262 37.6301 98.9848 37.4744 99.1053 37.2688C99.2287 37.0631 99.2889 36.809 99.2859 36.5064ZM105.893 32.6196V34.0297H101.817V32.6196H105.893ZM102.742 30.9979H104.619V37.3084C104.619 37.4817 104.646 37.6169 104.699 37.7138C104.752 37.8079 104.825 37.874 104.919 37.9121C105.016 37.9503 105.128 37.9694 105.254 37.9694C105.342 37.9694 105.43 37.9621 105.518 37.9474C105.606 37.9298 105.674 37.9166 105.721 37.9077L106.016 39.3047C105.922 39.3341 105.79 39.3679 105.62 39.4061C105.449 39.4472 105.242 39.4722 104.998 39.481C104.546 39.4986 104.149 39.4384 103.809 39.3003C103.471 39.1622 103.208 38.9477 103.02 38.6569C102.832 38.366 102.739 37.9988 102.742 37.5552V30.9979ZM109.756 39.5206C109.059 39.5206 108.46 39.3796 107.958 39.0976C107.458 38.8126 107.073 38.4101 106.803 37.8901C106.533 37.3672 106.398 36.7487 106.398 36.0348C106.398 35.3386 106.533 34.7275 106.803 34.2016C107.073 33.6757 107.454 33.2659 107.944 32.9721C108.438 32.6783 109.017 32.5314 109.681 32.5314C110.127 32.5314 110.543 32.6034 110.928 32.7474C111.316 32.8884 111.653 33.1014 111.941 33.3864C112.232 33.6713 112.458 34.0297 112.62 34.4616C112.782 34.8905 112.862 35.3929 112.862 35.9687V36.4843H107.147V35.3209H111.095C111.095 35.0507 111.037 34.8112 110.919 34.6026C110.801 34.394 110.638 34.231 110.43 34.1135C110.224 33.993 109.985 33.9328 109.712 33.9328C109.427 33.9328 109.174 33.9989 108.954 34.1311C108.736 34.2604 108.566 34.4352 108.442 34.6555C108.319 34.8729 108.256 35.1153 108.253 35.3826V36.4887C108.253 36.8237 108.315 37.113 108.438 37.3569C108.564 37.6007 108.742 37.7888 108.971 37.921C109.2 38.0532 109.472 38.1193 109.786 38.1193C109.995 38.1193 110.186 38.0899 110.359 38.0311C110.533 37.9724 110.681 37.8842 110.804 37.7667C110.928 37.6492 111.022 37.5053 111.086 37.3349L112.823 37.4494C112.735 37.8666 112.554 38.2309 112.281 38.5423C112.01 38.8508 111.661 39.0917 111.232 39.265C110.806 39.4354 110.314 39.5206 109.756 39.5206ZM119.273 39.5206C118.589 39.5206 117.997 39.3752 117.497 39.0844C117.001 38.7906 116.618 38.3822 116.347 37.8593C116.077 37.3334 115.942 36.7238 115.942 36.0304C115.942 35.3312 116.077 34.7201 116.347 34.1972C116.618 33.6713 117.001 33.263 117.497 32.9721C117.997 32.6783 118.589 32.5314 119.273 32.5314C119.958 32.5314 120.548 32.6783 121.045 32.9721C121.544 33.263 121.929 33.6713 122.199 34.1972C122.47 34.7201 122.605 35.3312 122.605 36.0304C122.605 36.7238 122.47 37.3334 122.199 37.8593C121.929 38.3822 121.544 38.7906 121.045 39.0844C120.548 39.3752 119.958 39.5206 119.273 39.5206ZM119.282 38.0664C119.594 38.0664 119.854 37.9782 120.062 37.802C120.271 37.6228 120.428 37.3789 120.534 37.0704C120.642 36.762 120.697 36.4109 120.697 36.0172C120.697 35.6235 120.642 35.2725 120.534 34.964C120.428 34.6555 120.271 34.4117 120.062 34.2325C119.854 34.0533 119.594 33.9636 119.282 33.9636C118.968 33.9636 118.703 34.0533 118.489 34.2325C118.277 34.4117 118.117 34.6555 118.009 34.964C117.903 35.2725 117.85 35.6235 117.85 36.0172C117.85 36.4109 117.903 36.762 118.009 37.0704C118.117 37.3789 118.277 37.6228 118.489 37.802C118.703 37.9782 118.968 38.0664 119.282 38.0664ZM127.093 32.6196V34.0297H122.916V32.6196H127.093ZM123.872 39.3884V32.1304C123.872 31.6398 123.967 31.2329 124.158 30.9097C124.352 30.5866 124.617 30.3442 124.952 30.1826C125.287 30.021 125.667 29.9402 126.093 29.9402C126.381 29.9402 126.644 29.9623 126.882 30.0063C127.123 30.0504 127.302 30.0901 127.419 30.1253L127.085 31.5355C127.011 31.512 126.92 31.49 126.811 31.4694C126.706 31.4488 126.597 31.4385 126.485 31.4385C126.209 31.4385 126.017 31.5032 125.908 31.6324C125.799 31.7588 125.745 31.9365 125.745 32.1657V39.3884H123.872ZM70.9166 45.9589C70.8813 45.6034 70.73 45.3273 70.4627 45.1304C70.1953 44.9336 69.8325 44.8352 69.3742 44.8352C69.0628 44.8352 68.7998 44.8792 68.5854 44.9674C68.3709 45.0526 68.2064 45.1715 68.0918 45.3243C67.9802 45.4771 67.9244 45.6504 67.9244 45.8443C67.9185 46.0059 67.9523 46.1469 68.0257 46.2674C68.1021 46.3878 68.2064 46.4921 68.3386 46.5803C68.4708 46.6655 68.6236 46.7404 68.7969 46.805C68.9702 46.8667 69.1553 46.9196 69.3522 46.9636L70.163 47.1575C70.5567 47.2457 70.9181 47.3632 71.2471 47.5101C71.5761 47.657 71.8611 47.8377 72.102 48.0521C72.3429 48.2666 72.5295 48.5192 72.6617 48.8101C72.7968 49.1009 72.8659 49.4344 72.8688 49.8104C72.8659 50.3628 72.7248 50.8416 72.4457 51.2471C72.1696 51.6496 71.77 51.9624 71.2471 52.1857C70.7271 52.4061 70.0999 52.5162 69.3654 52.5162C68.6368 52.5162 68.0022 52.4046 67.4616 52.1813C66.924 51.958 66.5039 51.6275 66.2013 51.1898C65.9016 50.7491 65.7445 50.2041 65.7298 49.5548H67.5762C67.5968 49.8575 67.6835 50.1101 67.8362 50.3128C67.9919 50.5126 68.1991 50.6639 68.4576 50.7667C68.7191 50.8666 69.0143 50.9166 69.3434 50.9166C69.6665 50.9166 69.9471 50.8695 70.1851 50.7755C70.426 50.6815 70.6125 50.5508 70.7447 50.3833C70.8769 50.2159 70.943 50.0234 70.943 49.806C70.943 49.6033 70.8828 49.4329 70.7623 49.2948C70.6448 49.1568 70.4715 49.0393 70.2423 48.9423C70.0161 48.8454 69.7385 48.7572 69.4095 48.6779L68.4267 48.4311C67.6658 48.246 67.065 47.9566 66.6244 47.563C66.1837 47.1693 65.9648 46.639 65.9677 45.9721C65.9648 45.4257 66.1102 44.9483 66.404 44.5399C66.7007 44.1315 67.1076 43.8128 67.6247 43.5836C68.1418 43.3545 68.7293 43.2399 69.3874 43.2399C70.0573 43.2399 70.6419 43.3545 71.1413 43.5836C71.6437 43.8128 72.0344 44.1315 72.3135 44.5399C72.5926 44.9483 72.7366 45.4213 72.7454 45.9589H70.9166ZM76.8031 52.5206C76.1097 52.5206 75.5133 52.3737 75.0139 52.08C74.5174 51.7832 74.1355 51.3719 73.8681 50.846C73.6037 50.3202 73.4715 49.715 73.4715 49.0304C73.4715 48.3371 73.6052 47.729 73.8725 47.206C74.1428 46.6801 74.5262 46.2703 75.0227 45.9765C75.5192 45.6798 76.1097 45.5314 76.7943 45.5314C77.3848 45.5314 77.9018 45.6387 78.3454 45.8531C78.7891 46.0676 79.1401 46.3687 79.3987 46.7565C79.6572 47.1443 79.7997 47.5997 79.8261 48.1226H78.0546C78.0047 47.7848 77.8725 47.513 77.658 47.3074C77.4465 47.0988 77.1688 46.9945 76.8251 46.9945C76.5343 46.9945 76.2801 47.0738 76.0627 47.2325C75.8483 47.3882 75.6808 47.6159 75.5603 47.9155C75.4399 48.2152 75.3797 48.578 75.3797 49.004C75.3797 49.4359 75.4384 49.8031 75.5559 50.1057C75.6764 50.4083 75.8453 50.6389 76.0627 50.7976C76.2801 50.9562 76.5343 51.0355 76.8251 51.0355C77.0396 51.0355 77.232 50.9915 77.4024 50.9033C77.5757 50.8152 77.7182 50.6874 77.8299 50.5199C77.9444 50.3495 78.0193 50.1454 78.0546 49.9074H79.8261C79.7968 50.4245 79.6557 50.8798 79.4031 51.2735C79.1534 51.6642 78.8082 51.9698 78.3675 52.1901C77.9268 52.4105 77.4053 52.5206 76.8031 52.5206ZM80.6558 52.3884V45.6196H82.5331V52.3884H80.6558ZM81.5989 44.747C81.3198 44.747 81.0803 44.6545 80.8806 44.4694C80.6837 44.2814 80.5853 44.0566 80.5853 43.7952C80.5853 43.5366 80.6837 43.3148 80.8806 43.1297C81.0803 42.9417 81.3198 42.8477 81.5989 42.8477C81.878 42.8477 82.1159 42.9417 82.3128 43.1297C82.5125 43.3148 82.6124 43.5366 82.6124 43.7952C82.6124 44.0566 82.5125 44.2814 82.3128 44.4694C82.1159 44.6545 81.878 44.747 81.5989 44.747ZM86.7494 52.5206C86.0531 52.5206 85.4538 52.3796 84.9514 52.0976C84.452 51.8126 84.0671 51.4101 83.7968 50.8901C83.5266 50.3672 83.3914 49.7487 83.3914 49.0348C83.3914 48.3386 83.5266 47.7275 83.7968 47.2016C84.0671 46.6757 84.4476 46.2659 84.9382 45.9721C85.4318 45.6783 86.0105 45.5314 86.6745 45.5314C87.1211 45.5314 87.5368 45.6034 87.9216 45.7474C88.3094 45.8884 88.6473 46.1014 88.9352 46.3864C89.226 46.6713 89.4523 47.0297 89.6138 47.4616C89.7754 47.8905 89.8562 48.3929 89.8562 48.9687V49.4843H84.1406V48.3209H88.0891C88.0891 48.0507 88.0303 47.8112 87.9128 47.6026C87.7953 47.394 87.6322 47.231 87.4237 47.1135C87.218 46.993 86.9786 46.9328 86.7053 46.9328C86.4204 46.9328 86.1677 46.9989 85.9474 47.1311C85.73 47.2604 85.5596 47.4352 85.4362 47.6555C85.3128 47.8729 85.2496 48.1153 85.2467 48.3826V49.4887C85.2467 49.8237 85.3084 50.113 85.4318 50.3569C85.5581 50.6007 85.7358 50.7888 85.965 50.921C86.1942 51.0532 86.4659 51.1193 86.7803 51.1193C86.9888 51.1193 87.1798 51.0899 87.3531 51.0311C87.5265 50.9724 87.6748 50.8842 87.7982 50.7667C87.9216 50.6492 88.0156 50.5053 88.0803 50.3349L89.8165 50.4494C89.7284 50.8666 89.5477 51.2309 89.2745 51.5423C89.0042 51.8508 88.6546 52.0917 88.2257 52.265C87.7997 52.4354 87.3076 52.5206 86.7494 52.5206ZM92.5863 48.4752V52.3884H90.709V45.6196H92.4982V46.8138H92.5775C92.7273 46.4201 92.9785 46.1087 93.3311 45.8796C93.6836 45.6475 94.1111 45.5314 94.6134 45.5314C95.0835 45.5314 95.4933 45.6343 95.8429 45.8399C96.1926 46.0456 96.4643 46.3393 96.6582 46.7213C96.8521 47.1003 96.9491 47.5527 96.9491 48.0786V52.3884H95.0718V48.4135C95.0747 47.9992 94.9689 47.6761 94.7545 47.444C94.54 47.209 94.2447 47.0914 93.8687 47.0914C93.616 47.0914 93.3928 47.1458 93.1989 47.2545C93.0079 47.3632 92.8581 47.5218 92.7494 47.7304C92.6436 47.9361 92.5893 48.1843 92.5863 48.4752ZM101.115 52.5206C100.421 52.5206 99.825 52.3737 99.3255 52.08C98.829 51.7832 98.4471 51.3719 98.1797 50.846C97.9153 50.3202 97.7831 49.715 97.7831 49.0304C97.7831 48.3371 97.9168 47.729 98.1842 47.206C98.4544 46.6801 98.8378 46.2703 99.3343 45.9765C99.8308 45.6798 100.421 45.5314 101.106 45.5314C101.696 45.5314 102.213 45.6387 102.657 45.8531C103.101 46.0676 103.452 46.3687 103.71 46.7565C103.969 47.1443 104.111 47.5997 104.138 48.1226H102.366C102.316 47.7848 102.184 47.513 101.97 47.3074C101.758 47.0988 101.48 46.9945 101.137 46.9945C100.846 46.9945 100.592 47.0738 100.374 47.2325C100.16 47.3882 99.9924 47.6159 99.872 47.9155C99.7515 48.2152 99.6913 48.578 99.6913 49.004C99.6913 49.4359 99.75 49.8031 99.8676 50.1057C99.988 50.4083 100.157 50.6389 100.374 50.7976C100.592 50.9562 100.846 51.0355 101.137 51.0355C101.351 51.0355 101.544 50.9915 101.714 50.9033C101.887 50.8152 102.03 50.6874 102.141 50.5199C102.256 50.3495 102.331 50.1454 102.366 49.9074H104.138C104.108 50.4245 103.967 50.8798 103.715 51.2735C103.465 51.6642 103.12 51.9698 102.679 52.1901C102.238 52.4105 101.717 52.5206 101.115 52.5206ZM108.052 52.5206C107.356 52.5206 106.757 52.3796 106.254 52.0976C105.755 51.8126 105.37 51.4101 105.1 50.8901C104.829 50.3672 104.694 49.7487 104.694 49.0348C104.694 48.3386 104.829 47.7275 105.1 47.2016C105.37 46.6757 105.75 46.2659 106.241 45.9721C106.735 45.6783 107.313 45.5314 107.977 45.5314C108.424 45.5314 108.84 45.6034 109.224 45.7474C109.612 45.8884 109.95 46.1014 110.238 46.3864C110.529 46.6713 110.755 47.0297 110.917 47.4616C111.078 47.8905 111.159 48.3929 111.159 48.9687V49.4843H105.443V48.3209H109.392C109.392 48.0507 109.333 47.8112 109.216 47.6026C109.098 47.394 108.935 47.231 108.726 47.1135C108.521 46.993 108.281 46.9328 108.008 46.9328C107.723 46.9328 107.47 46.9989 107.25 47.1311C107.033 47.2604 106.862 47.4352 106.739 47.6555C106.616 47.8729 106.552 48.1153 106.549 48.3826V49.4887C106.549 49.8237 106.611 50.113 106.735 50.3569C106.861 50.6007 107.039 50.7888 107.268 50.921C107.497 51.0532 107.769 51.1193 108.083 51.1193C108.292 51.1193 108.483 51.0899 108.656 51.0311C108.829 50.9724 108.978 50.8842 109.101 50.7667C109.224 50.6492 109.318 50.5053 109.383 50.3349L111.119 50.4494C111.031 50.8666 110.851 51.2309 110.577 51.5423C110.307 51.8508 109.957 52.0917 109.528 52.265C109.102 52.4354 108.61 52.5206 108.052 52.5206ZM113.109 52.503C112.818 52.503 112.569 52.4002 112.36 52.1945C112.154 51.9859 112.051 51.7362 112.051 51.4454C112.051 51.1575 112.154 50.9107 112.36 50.705C112.569 50.4994 112.818 50.3966 113.109 50.3966C113.391 50.3966 113.638 50.4994 113.849 50.705C114.061 50.9107 114.167 51.1575 114.167 51.4454C114.167 51.6393 114.117 51.817 114.017 51.9786C113.92 52.1372 113.792 52.265 113.634 52.362C113.475 52.456 113.3 52.503 113.109 52.503Z" fill="#F1E8DF"/>
<path d="M65.2362 22.3253H134.629V23.1715H65.2362V22.3253ZM65.2362 35.3253H127.49V36.1715H65.2362V35.3253ZM65.2362 48.3254H114.956V49.1715H65.2362V48.3254Z" fill="#F1E8DF"/>
<defs>
<clipPath id="clip0_1283_779">
<path d="M57.2362 52.8823L26.9999 52.8823L26.9999 30.1182C26.9999 21.7686 33.7685 15 42.118 15C50.4676 15 57.2362 21.7687 57.2362 30.1182L57.2362 52.8823Z" fill="white"/>
</clipPath>
</defs>
</svg>
