<svg width="159" height="70" viewBox="0 0 159 70" fill="none" xmlns="http://www.w3.org/2000/svg">
<circle cx="47.5" cy="34.5" r="22.2606" fill="#F1E8DF" stroke="#292725" stroke-width="0.478723"/>
<circle cx="47.5041" cy="34.4999" r="4.06915" fill="#F1E8DF" stroke="#292725" stroke-width="0.478723"/>
<path d="M47.5042 14.8723V34.5" stroke="#292725" stroke-width="3.35106"/>
<path d="M47.5042 34.5V54.1277" stroke="#292725" stroke-width="3.35106"/>
<path d="M33.6252 20.6211L47.504 34.4999" stroke="#292725" stroke-width="3.35106"/>
<path d="M47.5042 34.5L61.383 48.3789" stroke="#292725" stroke-width="3.35106"/>
<path d="M61.3788 20.6169L47.4999 34.4958" stroke="#292725" stroke-width="3.35106"/>
<path d="M47.4998 34.4958L33.6209 48.3747" stroke="#292725" stroke-width="3.35106"/>
<path d="M67.1277 34.4958H47.5001" stroke="#292725" stroke-width="3.35106"/>
<path d="M47.5002 34.4958H27.8725" stroke="#292725" stroke-width="3.35106"/>
<path d="M77.5736 31V29.8284H78.7208V23.6288H77.5736V22.4572H80.9907C82.1297 22.4572 83.0003 22.746 83.6024 23.3237C84.2126 23.9013 84.5177 24.7719 84.5177 25.9353V27.5341C84.5177 28.6975 84.2126 29.5681 83.6024 30.1457C83.0003 30.7152 82.1297 31 80.9907 31H77.5736ZM80.051 29.804H81.0029C81.7433 29.804 82.2925 29.6169 82.6505 29.2426C83.0084 28.8684 83.1874 28.3111 83.1874 27.5707V25.8865C83.1874 25.138 83.0084 24.5807 82.6505 24.2146C82.2925 23.8485 81.7433 23.6654 81.0029 23.6654H80.051V29.804ZM89.2167 31.1709C88.1671 31.1709 87.3332 30.878 86.7149 30.2922C86.0965 29.6982 85.7874 28.844 85.7874 27.7293V25.7279C85.7874 24.6132 86.0965 23.763 86.7149 23.1772C87.3332 22.5833 88.1671 22.2863 89.2167 22.2863C90.2662 22.2863 91.1002 22.5833 91.7185 23.1772C92.345 23.763 92.6582 24.6132 92.6582 25.7279V27.7293C92.6582 28.844 92.345 29.6982 91.7185 30.2922C91.1002 30.878 90.2662 31.1709 89.2167 31.1709ZM89.2167 29.9871C89.892 29.9871 90.4127 29.7918 90.7788 29.4013C91.1449 29.0026 91.328 28.4616 91.328 27.7781V25.6791C91.328 24.9956 91.1449 24.4587 90.7788 24.0681C90.4127 23.6695 89.892 23.4701 89.2167 23.4701C88.5577 23.4701 88.041 23.6695 87.6668 24.0681C87.2925 24.4587 87.1054 24.9956 87.1054 25.6791V27.7781C87.1054 28.4616 87.2925 29.0026 87.6668 29.4013C88.041 29.7918 88.5577 29.9871 89.2167 29.9871ZM95.899 31V23.6532H93.2752V22.4572H99.8409V23.6532H97.2171V31H95.899ZM100.661 31.1709C100.376 31.1709 100.136 31.0773 99.9408 30.8902C99.7537 30.703 99.6602 30.463 99.6602 30.1701C99.6602 29.8772 99.7537 29.6413 99.9408 29.4623C100.136 29.2752 100.376 29.1816 100.661 29.1816C100.946 29.1816 101.182 29.2752 101.369 29.4623C101.564 29.6494 101.662 29.8854 101.662 30.1701C101.662 30.463 101.564 30.703 101.369 30.8902C101.182 31.0773 100.946 31.1709 100.661 31.1709ZM103.24 31V22.4572H104.558V29.804H108.671V31H103.24ZM109.879 31V22.4572H111.197V31H109.879ZM112.977 31V22.4572H115.516L117.835 30.1213H118.03V22.4572H119.336V31H116.797L114.478 23.3237H114.283V31H112.977ZM121.117 31V22.4572H126.499V23.6532H122.435V26.1062H126.158V27.3022H122.435V29.804H126.56V31H121.117ZM79.929 47V39.6532H77.3051V38.4572H83.8709V39.6532H81.247V47H79.929ZM85.0655 47V38.4572H86.3835V42.1184H89.9715V38.4572H91.2895V47H89.9715V43.3144H86.3835V47H85.0655ZM96.284 47.1709C95.2345 47.1709 94.4005 46.878 93.7822 46.2922C93.1639 45.6982 92.8547 44.844 92.8547 43.7293V41.7279C92.8547 40.6132 93.1639 39.763 93.7822 39.1772C94.4005 38.5833 95.2345 38.2863 96.284 38.2863C97.3336 38.2863 98.1675 38.5833 98.7859 39.1772C99.4123 39.763 99.7256 40.6132 99.7256 41.7279V43.7293C99.7256 44.844 99.4123 45.6982 98.7859 46.2922C98.1675 46.878 97.3336 47.1709 96.284 47.1709ZM96.284 45.9871C96.9593 45.9871 97.48 45.7918 97.8461 45.4013C98.2123 45.0026 98.3953 44.4616 98.3953 43.7781V41.6791C98.3953 40.9956 98.2123 40.4587 97.8461 40.0681C97.48 39.6695 96.9593 39.4701 96.284 39.4701C95.625 39.4701 95.1084 39.6695 94.7341 40.0681C94.3599 40.4587 94.1727 40.9956 94.1727 41.6791V43.7781C94.1727 44.4616 94.3599 45.0026 94.7341 45.4013C95.1084 45.7918 95.625 45.9871 96.284 45.9871ZM104.483 47.1709C103.808 47.1709 103.226 47.0488 102.738 46.8047C102.258 46.5607 101.884 46.2108 101.615 45.7552C101.355 45.2914 101.225 44.7301 101.225 44.071V38.4572H102.555V44.1077C102.555 44.7097 102.722 45.1735 103.055 45.4989C103.389 45.8243 103.865 45.9871 104.483 45.9871C105.102 45.9871 105.578 45.8243 105.911 45.4989C106.245 45.1735 106.412 44.7097 106.412 44.1077V38.4572H107.73V44.071C107.73 44.7301 107.599 45.2914 107.339 45.7552C107.079 46.2108 106.704 46.5607 106.216 46.8047C105.728 47.0488 105.15 47.1709 104.483 47.1709ZM112.415 47.1709C111.805 47.1709 111.26 47.0407 110.78 46.7803C110.3 46.5118 109.922 46.1213 109.645 45.6087C109.368 45.0962 109.23 44.4697 109.23 43.7293V41.7279C109.23 40.6132 109.535 39.763 110.145 39.1772C110.755 38.5833 111.581 38.2863 112.623 38.2863C113.648 38.2863 114.437 38.567 114.99 39.1284C115.544 39.6817 115.82 40.4261 115.82 41.3618V41.4228H114.514V41.3251C114.514 40.9753 114.445 40.6621 114.307 40.3854C114.169 40.1007 113.961 39.8769 113.684 39.7142C113.408 39.5515 113.054 39.4701 112.623 39.4701C111.972 39.4701 111.463 39.6695 111.097 40.0681C110.731 40.4587 110.548 41.0038 110.548 41.7035V43.7537C110.548 44.4453 110.731 44.9945 111.097 45.4013C111.463 45.7999 111.976 45.9993 112.635 45.9993C113.286 45.9993 113.762 45.8203 114.063 45.4623C114.364 45.1043 114.514 44.6406 114.514 44.071V43.9124H112.22V42.7774H115.82V47H114.6V46.1335H114.404C114.331 46.2881 114.221 46.4468 114.075 46.6095C113.937 46.7722 113.733 46.9064 113.465 47.0122C113.204 47.118 112.855 47.1709 112.415 47.1709ZM117.518 47V38.4572H118.836V42.1184H122.424V38.4572H123.742V47H122.424V43.3144H118.836V47H117.518ZM127.565 47V39.6532H124.941V38.4572H131.507V39.6532H128.883V47H127.565Z" fill="#F1E8DF"/>
<path d="M77 27.4486H127.048V28.0588H77V27.4486ZM77 43.4486H131.812V44.0588H77V43.4486Z" fill="#F1E8DF"/>
</svg>
