<svg width="108" height="34" viewBox="0 0 108 34" fill="none" xmlns="http://www.w3.org/2000/svg">
<g clip-path="url(#clip0_136_719)">
<path d="M13.5417 12.3227V16.0116H22.2857C22.0536 18.0523 21.3571 19.6221 20.2738 20.6424C19.0357 21.8983 17.0238 23.311 13.5417 23.311C8.20238 23.311 4.02381 18.9157 4.02381 13.5C4.02381 8.0843 8.125 3.68895 13.5417 3.68895C16.4048 3.68895 18.5714 4.86628 20.119 6.35756L22.6726 3.76744C20.506 1.64826 17.5655 0 13.5417 0C6.19048 0 0 6.0436 0 13.5C0 20.9564 6.19048 27 13.5417 27C17.4881 27 20.506 25.6657 22.8274 23.2326C25.2262 20.7994 26 17.3459 26 14.5988C26 13.7355 25.9226 12.9506 25.8452 12.3227H13.5417V12.3227Z" fill="#FFF6EE"/>
<path d="M36.5 9C31.8705 9 28 12.5991 28 17.5C28 22.4009 31.7946 26 36.5 26C41.2054 26 45 22.4775 45 17.5766C45 12.5991 41.2054 9 36.5 9ZM36.5 22.7072C33.9196 22.7072 31.7187 20.5631 31.7187 17.5766C31.7187 14.5135 33.9196 12.4459 36.5 12.4459C39.0804 12.4459 41.2813 14.5135 41.2813 17.5766C41.2813 20.5631 39.0804 22.7072 36.5 22.7072Z" fill="#FFF6EE"/>
<path d="M78.3944 10.941H78.2441C77.4178 9.93168 75.8404 9 73.8122 9C69.6056 9 66 12.7267 66 17.618C66 22.4317 69.6056 26.236 73.8122 26.236C75.8404 26.236 77.4178 25.3043 78.2441 24.295H78.3944V25.5373C78.3944 28.7981 76.6667 30.5839 73.9624 30.5839C71.7089 30.5839 70.3568 28.9534 69.7559 27.4783L66.6009 28.8758C67.5023 31.1273 69.9812 34 74.0376 34C78.3192 34 82 31.3603 82 24.9938V9.46584H78.5446V10.941H78.3944ZM74.1878 22.8975C71.6338 22.8975 69.7559 20.646 69.7559 17.6957C69.7559 14.6677 71.7089 12.4938 74.1878 12.4938C76.6667 12.4938 78.6197 14.7453 78.6197 17.7733C78.6948 20.7236 76.7418 22.8975 74.1878 22.8975Z" fill="#FFF6EE"/>
<path d="M55.5 9C50.8705 9 47 12.5991 47 17.5C47 22.4009 50.7946 26 55.5 26C60.2054 26 64 22.4775 64 17.5766C64 12.5991 60.2054 9 55.5 9ZM55.5 22.7072C52.9196 22.7072 50.7187 20.5631 50.7187 17.5766C50.7187 14.5135 52.9196 12.4459 55.5 12.4459C58.0804 12.4459 60.2813 14.5135 60.2813 17.5766C60.2813 20.5631 58.0804 22.7072 55.5 22.7072Z" fill="#FFF6EE"/>
<path d="M86 0H90V26H86V0Z" fill="#FFF6EE"/>
<path d="M100.585 22.7072C98.6341 22.7072 97.3073 21.8649 96.3707 20.1036L108 15.4324L107.61 14.4369C106.907 12.5225 104.644 9 100.195 9C95.7463 9 92 12.4459 92 17.5C92 22.2477 95.6683 26 100.585 26C104.566 26 106.829 23.6261 107.844 22.2477L104.878 20.3333C103.863 21.7883 102.537 22.7072 100.585 22.7072ZM100.351 12.2162C101.912 12.2162 103.239 12.982 103.629 14.0541L95.8244 17.2703C95.7463 13.7477 98.4 12.2162 100.351 12.2162Z" fill="#FFF6EE"/>
</g>
<defs>
<clipPath id="clip0_136_719">
<rect width="108" height="34" fill="white"/>
</clipPath>
</defs>
</svg>
