<svg width="72" height="71" viewBox="0 0 72 71" fill="none" xmlns="http://www.w3.org/2000/svg">
<path d="M16.1309 56.8664H15.7101L15.3791 57.1264L1.38418 68.1213V4.33333C1.38418 3.70574 1.63349 3.10385 2.07727 2.66007C2.52104 2.21629 3.12294 1.96698 3.75053 1.96698H68.2505C68.8781 1.96698 69.48 2.21629 69.9238 2.66007C70.3676 3.10384 70.6169 3.70573 70.6169 4.33333V54.5C70.6169 55.1276 70.3676 55.7295 69.9238 56.1733C69.48 56.617 68.8781 56.8664 68.2505 56.8664H16.1309ZM64.6672 52.1336H65.8842V50.9167V7.91667V6.69969H64.6672H7.33387H6.11688V7.91667V55.8796V58.3832L8.08567 56.8366L14.0721 52.1336H64.6672ZM33.6342 27.0503H38.3669V31.783H33.6342V27.0503ZM19.3008 27.0503H24.0336V31.783H19.3008V27.0503ZM47.9675 27.0503H52.7002V31.783H47.9675V27.0503Z" fill="#10100F" stroke="#FFF6EE" stroke-width="2.43396"/>
</svg>
