<svg width="156" height="69" viewBox="0 0 156 69" fill="none" xmlns="http://www.w3.org/2000/svg">
<path d="M55.6219 24.4868C57.4027 24.4868 58.9014 25.0863 60.1179 26.2852C61.3345 27.4842 61.9428 28.9564 61.9428 30.7019C61.9428 32.4475 61.3345 33.9197 60.1179 35.1187C58.9014 36.3176 57.4027 36.9171 55.6219 36.9171H52.3688V43H48.7191V24.4868H55.6219ZM55.6219 33.5054C56.3977 33.5054 57.0412 33.2409 57.5525 32.7119C58.0639 32.1654 58.3195 31.4954 58.3195 30.7019C58.3195 29.8909 58.0639 29.2209 57.5525 28.6919C57.0412 28.163 56.3977 27.8985 55.6219 27.8985H52.3688V33.5054H55.6219ZM71.5127 29.406C72.9584 29.406 74.1486 29.8909 75.0831 30.8606C76.0352 31.8304 76.5112 33.1704 76.5112 34.8806V43H73.0995V35.3038C73.0995 34.4222 72.8615 33.7522 72.3854 33.2938C71.9094 32.8177 71.2746 32.5797 70.4812 32.5797C69.5996 32.5797 68.8944 32.853 68.3654 33.3996C67.8365 33.9462 67.572 34.766 67.572 35.8592V43H64.1603V24.4868H67.572V31.2573C68.4007 30.0231 69.7142 29.406 71.5127 29.406ZM87.7621 29.7763H91.4119L86.5984 43C85.9108 44.9042 84.994 46.2795 83.8479 47.1258C82.7195 47.9898 81.309 48.3776 79.6163 48.2895V45.1158C80.5332 45.1334 81.2561 44.9395 81.785 44.534C82.3316 44.1284 82.7636 43.4761 83.0809 42.5768L77.6592 29.7763H81.3883L84.8265 38.6626L87.7621 29.7763ZM100.388 29.406C101.834 29.406 103.024 29.8909 103.958 30.8606C104.91 31.8304 105.386 33.1704 105.386 34.8806V43H101.975V35.3038C101.975 34.4222 101.737 33.7522 101.261 33.2938C100.785 32.8177 100.15 32.5797 99.3564 32.5797C98.4749 32.5797 97.7696 32.853 97.2406 33.3996C96.7117 33.9462 96.4472 34.766 96.4472 35.8592V43H93.0355V29.7763H96.4472V31.2573C97.2759 30.0231 98.5895 29.406 100.388 29.406ZM118.35 29.7763H121.761V43H118.35V41.4396C117.327 42.7267 115.89 43.3703 114.039 43.3703C112.276 43.3703 110.759 42.7003 109.49 41.3603C108.238 40.0026 107.612 38.3452 107.612 36.3881C107.612 34.431 108.238 32.7825 109.49 31.4425C110.759 30.0848 112.276 29.406 114.039 29.406C115.89 29.406 117.327 30.0496 118.35 31.3367V29.7763ZM112.055 39.0858C112.743 39.7734 113.616 40.1172 114.673 40.1172C115.731 40.1172 116.604 39.7734 117.292 39.0858C117.997 38.3805 118.35 37.4813 118.35 36.3881C118.35 35.295 117.997 34.4046 117.292 33.7169C116.604 33.0117 115.731 32.659 114.673 32.659C113.616 32.659 112.743 33.0117 112.055 33.7169C111.368 34.4046 111.024 35.295 111.024 36.3881C111.024 37.4813 111.368 38.3805 112.055 39.0858ZM128.267 32.0508C128.584 31.2044 129.104 30.5697 129.827 30.1465C130.568 29.7234 131.388 29.5118 132.287 29.5118V33.3202C131.247 33.1968 130.312 33.4084 129.483 33.955C128.672 34.5016 128.267 35.4096 128.267 36.6791V43H124.855V29.7763H128.267V32.0508ZM142.208 33.0558H139.219V38.5568C139.219 39.0153 139.334 39.3503 139.563 39.5618C139.792 39.7734 140.127 39.8968 140.568 39.9321C141.009 39.9497 141.555 39.9409 142.208 39.9056V43C139.863 43.2645 138.205 43.0441 137.236 42.3388C136.283 41.6335 135.807 40.3729 135.807 38.5568V33.0558H133.507V29.7763H135.807V27.1051L139.219 26.0736V29.7763H142.208V33.0558Z" fill="#F1E8DF"/>
<path d="M42.1941 33.5007V33.5C42.1942 30.5874 41.134 27.7765 39.2154 25.6044C37.3353 23.4759 34.7601 22.1071 31.9646 21.7469V19.2868C31.9646 18.8948 31.8108 18.5183 31.5362 18.2404C31.2615 17.9625 30.8885 17.8059 30.499 17.8059C30.1096 17.8059 29.7365 17.9625 29.4619 18.2404C29.1873 18.5183 29.0334 18.8948 29.0334 19.2868V21.7469C26.2384 22.1077 23.6637 23.4768 21.784 25.6052C19.8659 27.7772 18.8059 30.5877 18.8059 33.5C18.8059 36.4123 19.8659 39.2228 21.784 41.3948C23.6637 43.5232 26.2384 44.8923 29.0334 45.2531V47.7132C29.0334 48.1052 29.1873 48.4817 29.4619 48.7596C29.7365 49.0375 30.1096 49.1941 30.499 49.1941C30.8885 49.1941 31.2615 49.0375 31.5362 48.7596C31.8108 48.4817 31.9646 48.1052 31.9646 47.7132V45.2525C34.7559 44.8825 37.3252 43.5108 39.2033 41.3846C41.1197 39.215 42.1836 36.4101 42.1941 33.5007ZM23.8654 39.2786C22.496 37.6722 21.7401 35.6223 21.7351 33.5C21.7401 31.3777 22.496 29.3278 23.8654 27.7214C25.1854 26.1729 26.9913 25.1355 28.9756 24.7799V42.2201C26.9913 41.8645 25.1854 40.8271 23.8654 39.2786ZM31.9646 42.2225V24.7775C33.9634 25.1146 35.7873 26.1454 37.1204 27.6973C38.5027 29.3063 39.2643 31.3671 39.2643 33.5C39.2643 35.6329 38.5027 37.6937 37.1204 39.3027C35.7873 40.8546 33.9634 41.8854 31.9646 42.2225Z" fill="#F1E8DF" stroke="#F1E8DF" stroke-width="0.388259"/>
</svg>