<svg width="156" height="69" viewBox="0 0 156 69" fill="none" xmlns="http://www.w3.org/2000/svg">
<path d="M6.91526 36.1486H11.9341C12.0134 36.6402 12.2434 37.0683 12.6239 37.4331C13.0045 37.7978 13.512 38.0832 14.1463 38.2894C14.7964 38.4796 15.5576 38.5748 16.4297 38.5748C17.6349 38.5748 18.5863 38.4241 19.2841 38.1229C19.9818 37.8057 20.3307 37.3458 20.3307 36.7433C20.3307 36.2834 20.1325 35.9266 19.736 35.6729C19.3396 35.4192 18.5784 35.2368 17.4525 35.1258L14.1225 34.8166C11.6646 34.5946 9.8806 34.0396 8.77058 33.1515C7.66056 32.2477 7.10554 31.0346 7.10554 29.5122C7.10554 28.2754 7.46234 27.2288 8.17592 26.3725C8.90537 25.5162 9.92024 24.8739 11.2206 24.4458C12.5367 24.0018 14.067 23.7798 15.8113 23.7798C17.5239 23.7798 19.0462 24.0256 20.3782 24.5171C21.7103 24.9929 22.7648 25.6747 23.5418 26.5628C24.3347 27.4508 24.7628 28.4815 24.8263 29.655H19.8312C19.7677 29.2268 19.5616 28.8621 19.2127 28.5608C18.8797 28.2437 18.4198 28.0058 17.8331 27.8472C17.2464 27.6728 16.5407 27.5856 15.7161 27.5856C14.6061 27.5856 13.726 27.7362 13.0759 28.0375C12.4257 28.3229 12.1006 28.7511 12.1006 29.322C12.1006 29.7343 12.2909 30.0673 12.6715 30.321C13.068 30.5747 13.7736 30.7491 14.7885 30.8443L18.3326 31.2011C20.0294 31.3596 21.3852 31.6371 22.4001 32.0336C23.4149 32.4142 24.1523 32.9454 24.6122 33.6273C25.0721 34.3091 25.302 35.1575 25.302 36.1724C25.302 37.4251 24.9293 38.5193 24.184 39.4549C23.4387 40.3746 22.3921 41.0961 21.0443 41.6194C19.6964 42.1269 18.1265 42.3806 16.3346 42.3806C14.4951 42.3806 12.8697 42.1269 11.4584 41.6194C10.063 41.0961 8.9688 40.3667 8.17592 39.4311C7.38305 38.4796 6.96283 37.3855 6.91526 36.1486ZM35.455 42.3806C33.7107 42.3806 32.1883 42.0872 30.888 41.5005C29.5877 40.8979 28.5728 40.0575 27.8434 38.9792C27.1139 37.885 26.7492 36.6322 26.7492 35.2209C26.7492 33.7779 27.1139 32.5172 27.8434 31.4389C28.5728 30.3606 29.5877 29.5202 30.888 28.9176C32.1883 28.315 33.7107 28.0137 35.455 28.0137C37.1834 28.0137 38.6978 28.315 39.9981 28.9176C41.3143 29.5202 42.3371 30.3606 43.0666 31.4389C43.796 32.5172 44.1607 33.7779 44.1607 35.2209C44.1607 36.6322 43.796 37.885 43.0666 38.9792C42.3371 40.0575 41.3143 40.8979 39.9981 41.5005C38.6978 42.0872 37.1834 42.3806 35.455 42.3806ZM35.455 38.7889C36.2478 38.7889 36.9218 38.6461 37.4768 38.3607C38.0477 38.0753 38.4837 37.663 38.785 37.1238C39.0863 36.5847 39.237 35.9504 39.237 35.2209C39.237 34.4598 39.0863 33.8175 38.785 33.2943C38.4837 32.7551 38.0477 32.3428 37.4768 32.0574C36.9218 31.7719 36.2478 31.6292 35.455 31.6292C34.6621 31.6292 33.9802 31.7719 33.4094 32.0574C32.8385 32.3428 32.4024 32.7551 32.1011 33.2943C31.7998 33.8175 31.6492 34.4518 31.6492 35.1971C31.6492 35.9424 31.7998 36.5847 32.1011 37.1238C32.4024 37.663 32.8385 38.0753 33.4094 38.3607C33.9802 38.6461 34.6621 38.7889 35.455 38.7889ZM62.4045 36.2675C62.2777 37.4886 61.8337 38.5589 61.0725 39.4787C60.3114 40.3984 59.3203 41.112 58.0992 41.6194C56.8941 42.1269 55.5383 42.3806 54.0318 42.3806C52.3668 42.3806 50.9 42.0793 49.6314 41.4767C48.3628 40.8741 47.3717 40.0337 46.6581 38.9554C45.9445 37.8771 45.5877 36.6322 45.5877 35.2209C45.5877 33.7938 45.9445 32.541 46.6581 31.4627C47.3717 30.3844 48.3628 29.544 49.6314 28.9414C50.9 28.3229 52.3668 28.0137 54.0318 28.0137C55.5383 28.0137 56.8941 28.2754 58.0992 28.7987C59.3203 29.3061 60.3114 30.0197 61.0725 30.9394C61.8337 31.8433 62.2777 32.9137 62.4045 34.1506H57.5759C57.4015 33.3418 56.9971 32.7234 56.3629 32.2952C55.7286 31.8512 54.9515 31.6292 54.0318 31.6292C53.3182 31.6292 52.6918 31.7719 52.1527 32.0574C51.6294 32.3269 51.2171 32.7313 50.9158 33.2705C50.6304 33.7938 50.4877 34.4439 50.4877 35.2209C50.4877 35.9821 50.6304 36.6322 50.9158 37.1714C51.2171 37.6947 51.6294 38.0991 52.1527 38.3845C52.6918 38.6541 53.3182 38.7889 54.0318 38.7889C54.9515 38.7889 55.7286 38.5589 56.3629 38.0991C57.013 37.6392 57.4174 37.0287 57.5759 36.2675H62.4045ZM64.3245 28.204L66.7745 28.6797L69.2007 28.204V42H64.3245V28.204ZM66.7507 27.0861C65.9103 27.0861 65.2284 26.8799 64.7051 26.4676C64.1818 26.0395 63.9202 25.4607 63.9202 24.7312C63.9202 24.0176 64.1818 23.4468 64.7051 23.0186C65.2284 22.5905 65.9103 22.3764 66.7507 22.3764C67.6229 22.3764 68.3127 22.5905 68.8201 23.0186C69.3434 23.4468 69.6051 24.0176 69.6051 24.7312C69.6051 25.4607 69.3434 26.0395 68.8201 26.4676C68.3127 26.8799 67.6229 27.0861 66.7507 27.0861ZM79.9612 42.3806C78.2169 42.3806 76.6945 42.0872 75.3942 41.5005C74.0939 40.8979 73.079 40.0575 72.3496 38.9792C71.6201 37.885 71.2554 36.6322 71.2554 35.2209C71.2554 33.7779 71.6201 32.5172 72.3496 31.4389C73.079 30.3606 74.0939 29.5202 75.3942 28.9176C76.6945 28.315 78.2169 28.0137 79.9612 28.0137C81.6896 28.0137 83.204 28.315 84.5043 28.9176C85.8205 29.5202 86.8433 30.3606 87.5728 31.4389C88.3022 32.5172 88.6669 33.7779 88.6669 35.2209C88.6669 36.6322 88.3022 37.885 87.5728 38.9792C86.8433 40.0575 85.8205 40.8979 84.5043 41.5005C83.204 42.0872 81.6896 42.3806 79.9612 42.3806ZM79.9612 38.7889C80.754 38.7889 81.428 38.6461 81.983 38.3607C82.5539 38.0753 82.9899 37.663 83.2912 37.1238C83.5925 36.5847 83.7432 35.9504 83.7432 35.2209C83.7432 34.4598 83.5925 33.8175 83.2912 33.2943C82.9899 32.7551 82.5539 32.3428 81.983 32.0574C81.428 31.7719 80.754 31.6292 79.9612 31.6292C79.1683 31.6292 78.4864 31.7719 77.9156 32.0574C77.3447 32.3428 76.9086 32.7551 76.6073 33.2943C76.306 33.8175 76.1554 34.4518 76.1554 35.1971C76.1554 35.9424 76.306 36.5847 76.6073 37.1238C76.9086 37.663 77.3447 38.0753 77.9156 38.3607C78.4864 38.6461 79.1683 38.7889 79.9612 38.7889ZM91.3784 24.1604H94.5181V42H91.3784V24.1604ZM105.888 24.1604H109.028V42H105.888V24.1604ZM93.0672 31.6292H107.386V34.3884H93.0672V31.6292ZM118.145 42.333C116.909 42.333 115.854 42.0793 114.982 41.5718C114.126 41.0644 113.467 40.335 113.008 39.3835C112.548 38.4321 112.318 37.2983 112.318 35.9821V28.537H115.41V35.5064C115.41 36.9018 115.727 37.9643 116.361 38.6937C117.012 39.4073 117.939 39.7641 119.144 39.7641C120.017 39.7641 120.762 39.5738 121.38 39.1932C122.015 38.8126 122.506 38.2735 122.855 37.5758C123.204 36.8622 123.378 36.0376 123.378 35.102L124.449 35.6967C124.322 37.0763 123.973 38.2656 123.402 39.2646C122.831 40.2478 122.094 41.0089 121.19 41.5481C120.286 42.0714 119.271 42.333 118.145 42.333ZM124.163 42L123.378 37.1476V28.537H126.471V37.6233L127.256 42H124.163ZM129.93 23.6846H133.022V33.1753L132.546 34.0554V36.553L133.022 37.552V42H129.93V23.6846ZM131.785 35.2685C132.086 33.8413 132.586 32.6045 133.283 31.5579C133.981 30.4954 134.838 29.6708 135.852 29.0841C136.883 28.4974 138.025 28.204 139.278 28.204C140.594 28.204 141.759 28.5053 142.774 29.1079C143.789 29.6946 144.582 30.5192 145.153 31.5816C145.724 32.6282 146.009 33.8572 146.009 35.2685C146.009 36.664 145.724 37.8929 145.153 38.9554C144.582 40.0178 143.789 40.8503 142.774 41.4529C141.759 42.0396 140.594 42.333 139.278 42.333C138.025 42.333 136.883 42.0396 135.852 41.4529C134.838 40.8662 133.981 40.0416 133.283 38.9792C132.586 37.9167 132.086 36.6798 131.785 35.2685ZM142.869 35.2685C142.869 34.3646 142.679 33.5718 142.298 32.8899C141.934 32.1922 141.426 31.653 140.776 31.2724C140.126 30.876 139.381 30.6778 138.54 30.6778C137.7 30.6778 136.907 30.876 136.162 31.2724C135.432 31.653 134.79 32.1922 134.235 32.8899C133.68 33.5718 133.228 34.3646 132.879 35.2685C133.228 36.1724 133.68 36.9732 134.235 37.6709C134.79 38.3528 135.432 38.8919 136.162 39.2884C136.907 39.669 137.7 39.8592 138.54 39.8592C139.381 39.8592 140.126 39.669 140.776 39.2884C141.426 38.8919 141.934 38.3528 142.298 37.6709C142.679 36.9732 142.869 36.1724 142.869 35.2685Z" fill="#F1E8DF"/>
</svg>