<svg width="119" height="50" viewBox="0 0 119 50" fill="none" xmlns="http://www.w3.org/2000/svg">
   <path
    d="M7.36039 37.4384H13.8059V5.90635H21.0861V3.69684L0.0802002 3.62166V5.90635H7.36039V37.4384Z"
    fill="#FF5A15"
  />
  <path
    d="M23.9169 37.9021C27.2092 37.9021 29.6205 36.4182 30.7334 33.8678V37.4384H36.9934V21.3941C36.9934 15.8297 32.82 12.3982 27.3019 12.3982C21.7838 12.3982 17.5641 15.8297 17.5641 20.7913H23.9633C23.9169 20.2349 23.8705 19.5393 23.8705 18.8901C23.8705 14.4849 25.4471 13.0011 27.3019 13.0011C29.2495 13.0011 30.7334 14.3458 30.7334 18.6583V23.5736H23.9169C19.4653 23.5736 16.0339 26.4949 16.0339 30.8538C16.0339 34.8416 19.1407 37.9021 23.9169 37.9021ZM26.5136 36.0473C23.8241 36.0473 22.3866 33.7287 22.3866 30.3901C22.3866 26.7268 24.2878 24.1764 27.3019 24.1764H30.7334V30.5292C30.7334 33.7751 28.9713 36.0473 26.5136 36.0473Z"
    fill="#FF5A15"
  />
  <path
    d="M53.3383 37.4384H59.5984V19.9103C59.5984 15.5051 56.5379 12.3982 52.2718 12.3982C49.165 12.3982 46.7073 14.114 45.6408 16.6643V12.8619H39.3808V37.4384H45.6408V19.2611C45.6408 16.618 47.3101 14.6704 49.5359 14.6704C51.7617 14.6704 53.3383 16.618 53.3383 19.2611V37.4384Z"
    fill="#FF5A15"
  />
  <path
    d="M71.6134 49.2629C77.8735 49.2629 82.5569 44.9504 82.5569 39.2468C82.5569 33.6824 78.0126 29.4626 71.938 29.3235V27.8397C76.6215 27.7006 80.0529 24.4546 80.0529 20.1421C80.0529 16.247 77.2243 13.1865 73.2828 12.5374H82.4178V6.32369L71.6134 12.3982C66.8372 12.3982 63.2203 15.7369 63.2203 20.1421C63.2203 24.4546 66.6518 27.7006 71.2888 27.8397V29.3235C65.2143 29.4626 60.7163 33.6824 60.7163 39.2468C60.7163 44.9504 65.3534 49.2629 71.6134 49.2629ZM71.6134 27.2368C69.8977 27.2368 68.6457 25.2429 68.6457 20.1421C68.6457 14.995 69.8977 13.0011 71.6134 13.0011C73.3291 13.0011 74.5812 14.995 74.5812 20.1421C74.5812 25.2429 73.3291 27.2368 71.6134 27.2368ZM71.6134 48.6601C69.063 48.6601 67.1155 45.275 67.1155 39.2468C67.1155 33.265 69.063 29.9263 71.6134 29.9263C74.2566 29.9263 76.1577 33.265 76.1577 39.2468C76.1577 45.275 74.2566 48.6601 71.6134 48.6601Z"
    fill="#FF5A15"
  />
  <path d="M90.679 37.4384V0.57373H84.419V37.4384H90.679Z" fill="#FF5A15" />
  <path
    d="M111.882 28.7207C111.14 34.4243 108.636 37.2993 105.39 37.2993C101.078 37.2993 98.7131 32.384 98.7131 25.1502C98.7131 23.8054 98.8058 23.1129 98.9449 22L118.003 22.5406C116.519 17.1152 111.511 12.3982 105.39 12.3982C97.9248 12.3982 92.2676 17.6845 92.2676 25.1502C92.2676 32.6158 97.9248 37.9021 105.39 37.9021C111.558 37.9021 116.473 34.2388 118.003 28.7207H111.882ZM105.39 13.0011C109.193 13.0011 111.048 16.9889 111.743 20.7913H99.0377C99.8723 15.6442 102.237 13.0011 105.39 13.0011Z"
    fill="#FF5A15"
  />
</svg>
